<?xml version="1.0" standalone="no"?>
<!DOCTYPE svg PUBLIC "-//W3C//DTD SVG 20010904//EN"
 "http://www.w3.org/TR/2001/REC-SVG-20010904/DTD/svg10.dtd">
<svg version="1.0" xmlns="http://www.w3.org/2000/svg"
 width="449.000000pt" height="449.000000pt" viewBox="0 0 449.000000 449.000000"
 preserveAspectRatio="xMidYMid meet">
<metadata>
Created by potrace 1.14, written by Peter Selinger 2001-2017
</metadata>
<g transform="translate(0.000000,449.000000) scale(0.100000,-0.100000)"
fill="#000000" stroke="none">
<path d="M2189 4256 c-131 -50 -198 -144 -205 -291 -2 -44 -4 -90 -4 -102 l0
-22 -405 -1 c-445 0 -494 -4 -632 -62 -197 -81 -365 -252 -447 -453 -42 -103
-58 -206 -58 -378 -1 -156 -1 -158 -22 -152 -12 3 -51 9 -87 12 -97 8 -159
-15 -230 -86 -91 -91 -90 -87 -87 -567 3 -403 3 -410 26 -455 64 -131 212
-201 342 -162 25 7 48 13 51 13 3 0 6 -129 6 -287 1 -226 5 -305 18 -367 51
-244 196 -439 415 -559 91 -49 170 -75 285 -93 17 -3 510 -5 1096 -5 1040 -1
1067 0 1152 20 338 80 583 349 633 694 3 27 7 172 7 323 1 151 4 274 8 274 4
0 20 -5 36 -11 15 -6 56 -11 91 -11 109 1 202 59 262 164 l25 43 3 408 c3 488
4 487 -87 578 -62 61 -128 90 -208 90 -37 0 -50 -2 -104 -16 l-26 -6 0 138 c0
76 -3 162 -7 192 -42 368 -343 671 -711 717 -27 3 -204 6 -392 6 -307 0 -343
2 -347 17 -2 9 -4 50 -5 92 -1 137 -60 237 -169 290 -58 28 -170 35 -223 15z"/>
</g>
</svg>
